<svg xmlns="http://www.w3.org/2000/svg" x="0px" y="0px" width="100%" height="100%" viewBox="0 0 64 64">
    <path d="M 54.268,21.975 42.025,9.732 a 1,1 0 0 0 -1.414,0 L 5.172,45.172 A 1,1 0 0 0 4.917,45.604 L 0.038,62.726 A 1,1 0 0 0 1,64 1.029,1.029 0 0 0 1.274,63.962 L 18.4,59.083 a 1,1 0 0 0 0.433,-0.255 L 54.273,23.389 A 1,1 0 0 0 54.268,21.975 Z M 17.6,57.23 2.454,61.546 4.214,55.369 a 7,7 0 0 1 3.84,3.15 1.000411,1.000411 0 0 0 1.733,-1 9,9 0 0 0 -5.024,-4.078 L 6.525,47.26 a 12.99,12.99 0 0 1 9.536,7.918 1,1 0 0 0 0.929,0.629 1,1 0 0 0 0.928,-1.371 c -0.182,-0.456 -0.392,-0.9 -0.615,-1.325 l 30.4,-30.4 a 1,1 0 0 0 -1.414,-1.414 l -30.06,30.06 a 14.98,14.98 0 0 0 -3.585,-3.586 l 30.059,-30.06 a 1,1 0 0 0 -1.414,-1.414 l -30.4,30.4 a 14.987,14.987 0 0 0 -3.2,-1.216 L 41.318,11.854 52.146,22.682 Z m 45.228,-48.058 -8,-8 a 4.1,4.1 0 0 0 -5.657,0 L 42.86,7.482 A 1.0016173,1.0016173 0 0 0 44.275,8.9 l 1.6,-1.6 9.414,9.414 A 1,1 0 0 0 56.703,15.3 l -9.41,-9.421 3.293,-3.293 a 2.047,2.047 0 0 1 2.828,0 l 8,8 a 2,2 0 0 1 0,2.828 L 55.1,19.725 a 1,1 0 1 0 1.414,1.414 l 6.31,-6.311 a 4,4 0 0 0 0,-5.656 z"></path>
</svg>